<svg version="1.1" id="Capa_1" xmlns="http://www.w3.org/2000/svg" xmlns:xlink="http://www.w3.org/1999/xlink" x="0px" y="0px" viewBox="0 0 512 512" style="enable-background:new 0 0 512 512;" xml:space="preserve">
<g id="XMLID_97_">
<g id="XMLID_98_">
<path id="XMLID_99_" style="fill:#EBEEF2;" d="M504.5,65.57v402.751c0,6.042-4.892,10.945-10.945,10.945H18.445
			c-6.053,0-10.945-4.903-10.945-10.945V65.57c0-18.125,14.699-32.836,32.836-32.836h431.329
			C489.801,32.735,504.5,47.445,504.5,65.57z"></path>
<path id="XMLID_100_" style="fill:#D3D8DF;" d="M504.5,65.565v402.76c0,6.04-4.89,10.94-10.95,10.94h-22
			c6.06,0,10.95-4.9,10.95-10.94V65.565c0-18.12-14.7-32.83-32.84-32.83h22C489.8,32.735,504.5,47.445,504.5,65.565z"></path>
<path id="XMLID_101_" style="fill: rgb(255, 119, 0);" d="M504.5,65.565v91.58H7.5v-91.58c0-18.12,14.7-32.83,32.84-32.83h431.32
			C489.8,32.735,504.5,47.445,504.5,65.565z"></path>
<path id="XMLID_102_" style="fill: rgb(255, 128, 0);" d="M504.5,65.565v91.58h-22v-91.58c0-18.12-14.7-32.83-32.84-32.83h22
			C489.8,32.735,504.5,47.445,504.5,65.565z"></path>
<g id="XMLID_103_">
<g id="XMLID_104_">
<g id="XMLID_106_">
<circle style="fill: rgb(255, 124, 10);" cx="149.134" cy="316.753" r="87.934" id="id_101"></circle>
</g>
</g>
</g>
</g>
<g id="XMLID_107_">
<path id="XMLID_108_" d="M244.568,316.753c0-52.623-42.812-95.435-95.434-95.435s-95.435,42.812-95.435,95.435
			c0,52.622,42.812,95.434,95.435,95.434S244.568,369.375,244.568,316.753z M68.699,316.753c0-44.352,36.083-80.435,80.435-80.435
			s80.434,36.083,80.434,80.435s-36.083,80.434-80.434,80.434S68.699,361.104,68.699,316.753z"></path>
<path id="XMLID_111_" d="M161.969,357.642c4.142,0,7.5-3.357,7.5-7.5s-3.358-7.5-7.5-7.5h-5.043v-59.278
			c0-2.622-1.37-5.055-3.612-6.414c-2.243-1.36-5.033-1.45-7.357-0.235l-13.127,6.85c-3.672,1.916-5.096,6.446-3.18,10.119
			c1.917,3.672,6.446,5.097,10.119,3.18l2.158-1.126v46.905h-5.043c-4.142,0-7.5,3.357-7.5,7.5s3.358,7.5,7.5,7.5H161.969z"></path>
<path id="XMLID_112_" d="M292.825,243.279h10.045c4.143,0,7.5-3.357,7.5-7.5s-3.357-7.5-7.5-7.5h-10.045
			c-4.143,0-7.5,3.357-7.5,7.5S288.683,243.279,292.825,243.279z"></path>
<path id="XMLID_113_" d="M342.136,243.279h10.044c4.143,0,7.5-3.357,7.5-7.5s-3.357-7.5-7.5-7.5h-10.044
			c-4.143,0-7.5,3.357-7.5,7.5S337.993,243.279,342.136,243.279z"></path>
<path id="XMLID_114_" d="M391.445,243.279h10.045c4.143,0,7.5-3.357,7.5-7.5s-3.357-7.5-7.5-7.5h-10.045
			c-4.143,0-7.5,3.357-7.5,7.5S387.303,243.279,391.445,243.279z"></path>
<path id="XMLID_115_" d="M440.756,243.279h10.045c4.143,0,7.5-3.357,7.5-7.5s-3.357-7.5-7.5-7.5h-10.045
			c-4.143,0-7.5,3.357-7.5,7.5S436.613,243.279,440.756,243.279z"></path>
<path id="XMLID_116_" d="M292.825,281.952h10.045c4.143,0,7.5-3.357,7.5-7.5s-3.357-7.5-7.5-7.5h-10.045
			c-4.143,0-7.5,3.357-7.5,7.5S288.683,281.952,292.825,281.952z"></path>
<path id="XMLID_117_" d="M342.136,281.952h10.044c4.143,0,7.5-3.357,7.5-7.5s-3.357-7.5-7.5-7.5h-10.044
			c-4.143,0-7.5,3.357-7.5,7.5S337.993,281.952,342.136,281.952z"></path>
<path id="XMLID_118_" d="M391.445,281.952h10.045c4.143,0,7.5-3.357,7.5-7.5s-3.357-7.5-7.5-7.5h-10.045
			c-4.143,0-7.5,3.357-7.5,7.5S387.303,281.952,391.445,281.952z"></path>
<path id="XMLID_119_" d="M440.756,281.952h10.045c4.143,0,7.5-3.357,7.5-7.5s-3.357-7.5-7.5-7.5h-10.045
			c-4.143,0-7.5,3.357-7.5,7.5S436.613,281.952,440.756,281.952z"></path>
<path id="XMLID_120_" d="M292.825,320.625h10.045c4.143,0,7.5-3.357,7.5-7.5s-3.357-7.5-7.5-7.5h-10.045
			c-4.143,0-7.5,3.357-7.5,7.5S288.683,320.625,292.825,320.625z"></path>
<path id="XMLID_121_" d="M342.136,320.625h10.044c4.143,0,7.5-3.357,7.5-7.5s-3.357-7.5-7.5-7.5h-10.044
			c-4.143,0-7.5,3.357-7.5,7.5S337.993,320.625,342.136,320.625z"></path>
<path id="XMLID_122_" d="M391.445,320.625h10.045c4.143,0,7.5-3.357,7.5-7.5s-3.357-7.5-7.5-7.5h-10.045
			c-4.143,0-7.5,3.357-7.5,7.5S387.303,320.625,391.445,320.625z"></path>
<path id="XMLID_123_" d="M440.756,320.625h10.045c4.143,0,7.5-3.357,7.5-7.5s-3.357-7.5-7.5-7.5h-10.045
			c-4.143,0-7.5,3.357-7.5,7.5S436.613,320.625,440.756,320.625z"></path>
<path id="XMLID_124_" d="M292.825,359.299h10.045c4.143,0,7.5-3.357,7.5-7.5s-3.357-7.5-7.5-7.5h-10.045
			c-4.143,0-7.5,3.357-7.5,7.5S288.683,359.299,292.825,359.299z"></path>
<path id="XMLID_125_" d="M342.136,359.299h10.044c4.143,0,7.5-3.357,7.5-7.5s-3.357-7.5-7.5-7.5h-10.044
			c-4.143,0-7.5,3.357-7.5,7.5S337.993,359.299,342.136,359.299z"></path>
<path id="XMLID_126_" d="M391.445,359.299h10.045c4.143,0,7.5-3.357,7.5-7.5s-3.357-7.5-7.5-7.5h-10.045
			c-4.143,0-7.5,3.357-7.5,7.5S387.303,359.299,391.445,359.299z"></path>
<path id="XMLID_127_" d="M440.756,359.299h10.045c4.143,0,7.5-3.357,7.5-7.5s-3.357-7.5-7.5-7.5h-10.045
			c-4.143,0-7.5,3.357-7.5,7.5S436.613,359.299,440.756,359.299z"></path>
<path id="XMLID_129_" d="M292.825,397.972h10.045c4.143,0,7.5-3.357,7.5-7.5s-3.357-7.5-7.5-7.5h-10.045
			c-4.143,0-7.5,3.357-7.5,7.5S288.683,397.972,292.825,397.972z"></path>
<path id="XMLID_130_" d="M342.136,397.972h10.044c4.143,0,7.5-3.357,7.5-7.5s-3.357-7.5-7.5-7.5h-10.044
			c-4.143,0-7.5,3.357-7.5,7.5S337.993,397.972,342.136,397.972z"></path>
<path id="XMLID_131_" d="M391.445,397.972h10.045c4.143,0,7.5-3.357,7.5-7.5s-3.357-7.5-7.5-7.5h-10.045
			c-4.143,0-7.5,3.357-7.5,7.5S387.303,397.972,391.445,397.972z"></path>
<path id="XMLID_132_" d="M440.756,397.972h10.045c4.143,0,7.5-3.357,7.5-7.5s-3.357-7.5-7.5-7.5h-10.045
			c-4.143,0-7.5,3.357-7.5,7.5S436.613,397.972,440.756,397.972z"></path>
<path id="XMLID_133_" d="M208.314,123.68c10.979,0,19.912-8.932,19.912-19.911V86.115c0-10.979-8.932-19.912-19.912-19.912h-9.864
			c-10.979,0-19.912,8.933-19.912,19.912v17.653c0,10.979,8.932,19.911,19.912,19.911H208.314z M193.539,103.769V86.115
			c0-2.709,2.203-4.912,4.912-4.912h9.864c2.708,0,4.912,2.203,4.912,4.912v17.653c0,2.708-2.203,4.911-4.912,4.911h-9.864
			C195.742,108.68,193.539,106.477,193.539,103.769z"></path>
<path id="XMLID_136_" d="M254.251,81.203h9.863c2.198,0,4.142,1.484,4.726,3.608c1.098,3.994,5.224,6.349,9.219,5.244
			c3.994-1.098,6.342-5.226,5.244-9.219c-2.368-8.616-10.259-14.634-19.188-14.634h-9.863c-10.979,0-19.912,8.933-19.912,19.912
			v17.653c0,10.979,8.932,19.911,19.912,19.911h9.863c7.627,0,14.681-4.459,17.97-11.36c1.782-3.739,0.195-8.215-3.544-9.997
			c-3.738-1.781-8.215-0.197-9.997,3.544c-0.827,1.735-2.524,2.813-4.429,2.813h-9.863c-2.708,0-4.912-2.203-4.912-4.911V86.115
			C249.339,83.406,251.542,81.203,254.251,81.203z"></path>
<path id="XMLID_137_" d="M310.084,123.68c4.143,0,7.5-3.357,7.5-7.5V81.203h8.377c4.143,0,7.5-3.357,7.5-7.5s-3.357-7.5-7.5-7.5
			h-31.754c-4.143,0-7.5,3.357-7.5,7.5s3.357,7.5,7.5,7.5h8.377v34.977C302.584,120.322,305.941,123.68,310.084,123.68z"></path>
<path id="XMLID_138_" d="M471.664,25.234H136.331c-4.142,0-7.5,3.357-7.5,7.5s3.358,7.5,7.5,7.5h335.333
			C485.635,40.234,497,51.6,497,65.57v84.078H15V65.57C15,51.6,26.365,40.234,40.335,40.234h63.334c4.142,0,7.5-3.357,7.5-7.5
			s-3.358-7.5-7.5-7.5H40.335C18.094,25.234,0,43.329,0,65.57v140.625c0,4.143,3.358,7.5,7.5,7.5s7.5-3.357,7.5-7.5v-41.547h482
			v239.547c0,4.143,3.357,7.5,7.5,7.5s7.5-3.357,7.5-7.5V65.57C512,43.329,493.905,25.234,471.664,25.234z"></path>
<path id="XMLID_139_" d="M504.5,429.355c-4.143,0-7.5,3.357-7.5,7.5v31.466c0,1.899-1.546,3.444-3.445,3.444H18.445
			c-1.9,0-3.445-1.545-3.445-3.444V238.855c0-4.143-3.358-7.5-7.5-7.5s-7.5,3.357-7.5,7.5v229.466
			c0,10.17,8.274,18.444,18.445,18.444h475.109c10.171,0,18.445-8.274,18.445-18.444v-31.466
			C512,432.713,508.643,429.355,504.5,429.355z"></path>
<path id="XMLID_140_" d="M73.356,423.024c-0.023,0-0.045,0-0.068,0c-4.11,0-7.461,3.314-7.498,7.433
			c-0.037,4.143,3.291,7.53,7.433,7.567l0.109,0.001c0.023,0,0.045,0,0.068,0c4.11,0,7.461-3.314,7.498-7.433
			c0.037-4.143-3.291-7.53-7.433-7.567L73.356,423.024z"></path>
<path id="XMLID_141_" d="M94.067,423.024c-0.023,0-0.045,0-0.068,0c-4.11,0-7.461,3.314-7.498,7.433
			c-0.037,4.143,3.291,7.53,7.433,7.567l0.109,0.001c0.023,0,0.045,0,0.068,0c4.11,0,7.461-3.314,7.498-7.433
			c0.037-4.143-3.291-7.53-7.433-7.567L94.067,423.024z"></path>
</g>
</g>
<g>
</g>
<g>
</g>
<g>
</g>
<g>
</g>
<g>
</g>
<g>
</g>
<g>
</g>
<g>
</g>
<g>
</g>
<g>
</g>
<g>
</g>
<g>
</g>
<g>
</g>
<g>
</g>
<g>
</g>
</svg>