<svg id="visual" viewBox="0 0 2000 50" width="2000" height="50" xmlns="http://www.w3.org/2000/svg" xmlns:xlink="http://www.w3.org/1999/xlink" version="1.1"><path d="M0 36L10.8 37.5C21.7 39 43.3 42 64.8 43.3C86.3 44.7 107.7 44.3 129.2 42.5C150.7 40.7 172.3 37.3 193.8 35.7C215.3 34 236.7 34 258.2 36C279.7 38 301.3 42 322.8 42.2C344.3 42.3 365.7 38.7 387.2 38.3C408.7 38 430.3 41 451.8 41.2C473.3 41.3 494.7 38.7 516.2 39.3C537.7 40 559.3 44 580.8 43.7C602.3 43.3 623.7 38.7 645.2 37.7C666.7 36.7 688.3 39.3 709.8 40.7C731.3 42 752.7 42 774.2 43C795.7 44 817.3 46 838.8 45.5C860.3 45 881.7 42 903.2 41C924.7 40 946.3 41 967.8 42.7C989.3 44.3 1010.7 46.7 1032.2 47.2C1053.7 47.7 1075.3 46.3 1096.8 45.5C1118.3 44.7 1139.7 44.3 1161.2 44.3C1182.7 44.3 1204.3 44.7 1225.8 44.2C1247.3 43.7 1268.7 42.3 1290.2 42C1311.7 41.7 1333.3 42.3 1354.8 42.2C1376.3 42 1397.7 41 1419.2 41.8C1440.7 42.7 1462.3 45.3 1483.8 45.8C1505.3 46.3 1526.7 44.7 1548.2 43.2C1569.7 41.7 1591.3 40.3 1612.8 39C1634.3 37.7 1655.7 36.3 1677.2 35.7C1698.7 35 1720.3 35 1741.8 37C1763.3 39 1784.7 43 1806.2 44.5C1827.7 46 1849.3 45 1870.8 43C1892.3 41 1913.7 38 1935.2 38C1956.7 38 1978.3 41 1989.2 42.5L2000 44L2000 51L1989.2 51C1978.3 51 1956.7 51 1935.2 51C1913.7 51 1892.3 51 1870.8 51C1849.3 51 1827.7 51 1806.2 51C1784.7 51 1763.3 51 1741.8 51C1720.3 51 1698.7 51 1677.2 51C1655.7 51 1634.3 51 1612.8 51C1591.3 51 1569.7 51 1548.2 51C1526.7 51 1505.3 51 1483.8 51C1462.3 51 1440.7 51 1419.2 51C1397.7 51 1376.3 51 1354.8 51C1333.3 51 1311.7 51 1290.2 51C1268.7 51 1247.3 51 1225.8 51C1204.3 51 1182.7 51 1161.2 51C1139.7 51 1118.3 51 1096.8 51C1075.3 51 1053.7 51 1032.2 51C1010.7 51 989.3 51 967.8 51C946.3 51 924.7 51 903.2 51C881.7 51 860.3 51 838.8 51C817.3 51 795.7 51 774.2 51C752.7 51 731.3 51 709.8 51C688.3 51 666.7 51 645.2 51C623.7 51 602.3 51 580.8 51C559.3 51 537.7 51 516.2 51C494.7 51 473.3 51 451.8 51C430.3 51 408.7 51 387.2 51C365.7 51 344.3 51 322.8 51C301.3 51 279.7 51 258.2 51C236.7 51 215.3 51 193.8 51C172.3 51 150.7 51 129.2 51C107.7 51 86.3 51 64.8 51C43.3 51 21.7 51 10.8 51L0 51Z" fill="#71d8f5" stroke-linecap="round" stroke-linejoin="miter"></path></svg>