<svg id="visual" viewBox="0 0 1500 200" width="1500" height="200" xmlns="http://www.w3.org/2000/svg" xmlns:xlink="http://www.w3.org/1999/xlink" version="1.1"><rect x="0" y="0" width="1500" height="200" fill="#ffffff"></rect><path d="M0 34L16.7 34C33.3 34 66.7 34 100 30.3C133.3 26.7 166.7 19.3 200 16C233.3 12.7 266.7 13.3 300 17.3C333.3 21.3 366.7 28.7 400 28.8C433.3 29 466.7 22 500 20.2C533.3 18.3 566.7 21.7 600 21.5C633.3 21.3 666.7 17.7 700 18.7C733.3 19.7 766.7 25.3 800 25.5C833.3 25.7 866.7 20.3 900 18.8C933.3 17.3 966.7 19.7 1000 22.3C1033.3 25 1066.7 28 1100 26.8C1133.3 25.7 1166.7 20.3 1200 17.3C1233.3 14.3 1266.7 13.7 1300 16.5C1333.3 19.3 1366.7 25.7 1400 26C1433.3 26.3 1466.7 20.7 1483.3 17.8L1500 15L1500 0L1483.3 0C1466.7 0 1433.3 0 1400 0C1366.7 0 1333.3 0 1300 0C1266.7 0 1233.3 0 1200 0C1166.7 0 1133.3 0 1100 0C1066.7 0 1033.3 0 1000 0C966.7 0 933.3 0 900 0C866.7 0 833.3 0 800 0C766.7 0 733.3 0 700 0C666.7 0 633.3 0 600 0C566.7 0 533.3 0 500 0C466.7 0 433.3 0 400 0C366.7 0 333.3 0 300 0C266.7 0 233.3 0 200 0C166.7 0 133.3 0 100 0C66.7 0 33.3 0 16.7 0L0 0Z" fill="#71d8f5"></path><path d="M0 3L16.7 3.7C33.3 4.3 66.7 5.7 100 5.8C133.3 6 166.7 5 200 6.3C233.3 7.7 266.7 11.3 300 14.5C333.3 17.7 366.7 20.3 400 19.5C433.3 18.7 466.7 14.3 500 14.5C533.3 14.7 566.7 19.3 600 18.2C633.3 17 666.7 10 700 8.8C733.3 7.7 766.7 12.3 800 14.2C833.3 16 866.7 15 900 12.5C933.3 10 966.7 6 1000 5.8C1033.3 5.7 1066.7 9.3 1100 11C1133.3 12.7 1166.7 12.3 1200 14.2C1233.3 16 1266.7 20 1300 20.2C1333.3 20.3 1366.7 16.7 1400 14.7C1433.3 12.7 1466.7 12.3 1483.3 12.2L1500 12L1500 0L1483.3 0C1466.7 0 1433.3 0 1400 0C1366.7 0 1333.3 0 1300 0C1266.7 0 1233.3 0 1200 0C1166.7 0 1133.3 0 1100 0C1066.7 0 1033.3 0 1000 0C966.7 0 933.3 0 900 0C866.7 0 833.3 0 800 0C766.7 0 733.3 0 700 0C666.7 0 633.3 0 600 0C566.7 0 533.3 0 500 0C466.7 0 433.3 0 400 0C366.7 0 333.3 0 300 0C266.7 0 233.3 0 200 0C166.7 0 133.3 0 100 0C66.7 0 33.3 0 16.7 0L0 0Z" fill="#fe586f"></path></svg>